# xmcd CD database file
#
# Track frame offsets:
#	150
#	12307
#	25291
#	41452
#	53204
#	71281
#	81784
#	95697
#	107664
#	118923
#	135980
#	150658
#	165713
#	177303
#	187754
#	199728
#	214031
#	228815
#
# Disc length: 3244 seconds
#
# Revision: 2
# Processed by: cddbd v1.4b41PL1 Copyright (c) Steve Scherf et al.
# Submitted via: Feurio! 1.50.2ß - http://www.feurio.com
#
DISCID=e50caa12
DTITLE=Ronny - Stimme der Prärie CD 1
DYEAR=1900
DGENRE=
TTITLE0=Oh my darling Caroline
TTITLE1=Mit dem Wind muß ich weiterzieh'n
TTITLE2=Es hängt ein Pferdehalfter an der Wand
TTITLE3=Donna Celina (Town of El Paso)
TTITLE4=Down by the banks of the Ohio
TTITLE5=Kenn' ein Land
TTITLE6=San Antonio Rose
TTITLE7=Kein Gold im Blue River
TTITLE8=Sie war so wunderbar
TTITLE9=Sag' warum willst du von mir gehen (High noon)
TTITLE10=Swanee River
TTITLE11=The green valleys of home
TTITLE12=Sweet Marylie (Home on the range)
TTITLE13=Jesse James
TTITLE14=Mayr, oh Mary (Gotta travel on)
TTITLE15=Bei Dir am Red River
TTITLE16=Wabash Cannonball
TTITLE17=Adios, my darling
EXTD=Seine schönsten Westernsongs
EXTT0=
EXTT1=
EXTT2=
EXTT3=
EXTT4=
EXTT5=
EXTT6=
EXTT7=
EXTT8=
EXTT9=
EXTT10=
EXTT11=
EXTT12=
EXTT13=
EXTT14=
EXTT15=
EXTT16=
EXTT17=
PLAYORDER=
